<svg xmlns="http://www.w3.org/2000/svg" xmlns:xlink="http://www.w3.org/1999/xlink" version="1.1" id="Layer_1" x="0px" y="0px" width="100px" height="100px" viewBox="0 0 100 100" enable-background="new 0 0 100 100" xml:space="preserve">
<circle fill="#FFFFFF" cx="50" cy="50" r="44"/>
<g>
	<g>
		<g>
			<path fill="#231F20" d="M29.057 52.315c0.116 1.1 0.2 1.6 0.3 2.692c-2.857 0.073-5.648-0.027-8.491-0.328 c-0.42-3.917-0.841-7.834-1.261-11.751c2.785 0.2 5.5 0.3 8.3 0.186c0.127 1.2 0.2 1.8 0.3 2.9 c-1.691 0.042-3.359 0.036-5.049-0.022c0.073 0.7 0.1 1 0.2 1.699c1.438 0.1 2.9 0.1 4.3 0.1 c0.117 1.1 0.2 1.6 0.3 2.713c-1.441 0.033-2.884-0.001-4.322-0.104c0.081 0.8 0.1 1.1 0.2 1.8 C25.584 52.4 27.3 52.4 29.1 52.315z"/>
			<path fill="#231F20" d="M33.245 54.724c-0.426-3.966-0.851-7.932-1.277-11.898c1.29-0.125 1.934-0.2 3.219-0.368 c0.327 3 0.7 6.1 1 9.14c1.767-0.274 3.53-0.595 5.275-0.988c0.12 1.1 0.2 1.7 0.3 2.8 C38.954 54 36.1 54.4 33.2 54.724z"/>
			<path fill="#231F20" d="M44.557 52.749c-0.422-3.928-0.843-7.856-1.265-11.783c1.485-0.339 2.968-0.689 4.45-1.044 c0.956-0.228 1.814-0.276 2.575-0.144c0.76 0.1 1.4 0.4 2 0.807c0.545 0.4 1 0.9 1.3 1.6 c0.325 0.6 0.5 1.4 0.6 2.164c0.095 0.9 0 1.725-0.156 2.516c-0.199 0.792-0.526 1.509-0.981 2.1 c-0.455 0.641-1.025 1.192-1.711 1.653c-0.686 0.461-1.468 0.801-2.347 1.02C47.523 52 46 52.4 44.6 52.749z M50.975 45.126c-0.048-0.451-0.152-0.848-0.312-1.191c-0.159-0.343-0.365-0.62-0.615-0.828 c-0.251-0.208-0.547-0.346-0.888-0.414c-0.341-0.068-0.713-0.052-1.115 0.047c-0.508 0.126-0.762 0.188-1.27 0.3 c0.219 2 0.4 4.1 0.7 6.128c0.508-0.128 0.761-0.192 1.269-0.321c0.412-0.105 0.773-0.276 1.081-0.513 c0.309-0.237 0.559-0.522 0.752-0.854c0.193-0.332 0.326-0.7 0.4-1.103C51.009 46 51 45.6 51 45.126z"/>
			<path fill="#231F20" d="M56.259 49.881c0.996-4.199 2.004-8.396 3.078-12.576c1.038-0.165 1.558-0.243 2.599-0.386 c1.91 3.7 3.8 7.3 5.6 11.055c-1.363 0.131-2.042 0.214-3.399 0.404c-0.385-0.91-0.577-1.361-0.961-2.257 c-1.242 0.196-1.862 0.307-3.1 0.545c-0.176 0.979-0.263 1.47-0.438 2.46C58.284 49.4 57.6 49.6 56.3 49.881z M60.984 40.355c-0.269 1.604-0.402 2.415-0.667 4.063c0.845-0.165 1.267-0.243 2.114-0.388 C61.852 42.6 61.6 41.8 61 40.355z"/>
			<path fill="#231F20" d="M69.052 47.846c-0.413-3.851-0.827-7.703-1.24-11.554c1.806-0.131 3.617-0.197 5.428-0.185 c0.58 0 1.1 0.1 1.6 0.377c0.517 0.2 1 0.6 1.4 0.964c0.393 0.4 0.7 0.8 1 1.3 c0.254 0.5 0.4 1 0.5 1.487c0.072 0.674-0.013 1.284-0.255 1.83c-0.242 0.546-0.614 0.973-1.115 1.3 c1.068 1.5 2.1 3.1 3.2 4.663c-1.491-0.189-2.233-0.25-3.711-0.32c-0.884-1.266-1.771-2.53-2.663-3.791 c-0.489-0.006-0.733-0.006-1.22 0.001c0.16 1.5 0.2 2.2 0.4 3.743C70.993 47.7 70.3 47.8 69.1 47.846z M71.599 41.218c0.821-0.013 1.232-0.012 2.1 0.009c0.201 0 0.377-0.095 0.527-0.302c0.15-0.207 0.205-0.502 0.164-0.885 c-0.042-0.394-0.175-0.699-0.399-0.912c-0.223-0.213-0.435-0.32-0.636-0.323c-0.79-0.012-1.184-0.01-1.971 0 C71.444 39.8 71.5 40.3 71.6 41.218z"/>
		</g>
		<path fill="#231F20" d="M48.74 37.969c-9.274 2.155-18.372 3.75-27.936 3.372c-1.575-0.088-2.252-0.942-2.031-2.442 c0.422-2.856 2.059-5.349 4.084-7.293c4.123-3.958 9.036-6.682 14.396-8.48c4.022-1.349 8.287-2.036 12.535-2.28 c6.544-0.377 13 0.2 19.2 2.688c3.117 1.3 6 3.3 7.8 6.189c0.685 1.1 1.2 2.3 1.5 3.5 c0.274 0.872-0.332 1.394-1.241 1.401c-0.196 0.002-0.397-0.021-0.596-0.032C67.015 34.2 58 35.8 48.7 37.969z M29.734 36.079c0.96-0.062 1.627-0.743 1.54-1.558c-0.08-0.746-0.899-1.317-1.797-1.26c-0.856 0.055-1.589 0.775-1.533 1.5 C27.997 35.5 28.9 36.1 29.7 36.079z M67.056 30.177c0.921-0.067 1.594-0.63 1.546-1.309 c-0.048-0.672-0.946-1.243-1.824-1.152c-0.855 0.088-1.599 0.765-1.533 1.385C65.31 29.7 66.2 30.2 67.1 30.177z M56.879 23.841c-0.859 0.125-1.594 0.83-1.519 1.456c0.074 0.6 1 1.1 1.8 0.978c0.811-0.121 1.581-0.82 1.527-1.435 C58.623 24.1 57.9 23.7 56.9 23.841z M38.257 26.553c-0.922 0.126-1.644 0.891-1.536 1.7 c0.103 0.7 1 1.3 1.8 1.163c0.819-0.128 1.549-0.966 1.468-1.685C39.935 26.9 39.2 26.4 38.3 26.553z M48.222 33.14c0.821-0.167 1.593-0.983 1.539-1.627c-0.052-0.632-0.959-1.149-1.784-1.02c-0.842 0.132-1.635 1.001-1.547 1.7 C46.52 32.9 47.3 33.3 48.2 33.14z"/>
		<path fill="#231F20" d="M51.425 62.279c9.305-1.886 18.549-3.276 28.013-3.257c1.077 0 2 0.6 2.1 1.9 c0.142 1.5 0.4 3.1 0 4.555c-0.691 2.865-3.434 5.335-6.468 5.685c-14.862 1.591-29.727 3.157-44.582 4.8 c-4.276 0.486-8.386-2.406-8.75-6.823c-0.06-0.732-0.154-1.464-0.21-2.195c-0.063-0.832 0.38-1.328 1.208-1.397 c0.194-0.016 0.4 0 0.6 0.003C32.886 65.5 42.1 64.2 51.4 62.279z"/>
		<g>
			<path fill="#231F20" d="M21.33 63.775c-0.223-2.08-0.446-4.16-0.67-6.24c1.175 0.1 1.8 0.2 2.9 0.2 c0.31 0 0.6 0.1 0.9 0.225c0.275 0.1 0.5 0.3 0.7 0.498c0.208 0.2 0.4 0.4 0.5 0.7 c0.134 0.3 0.2 0.5 0.2 0.759c0.038 0.35-0.008 0.675-0.136 0.976c-0.128 0.301-0.324 0.547-0.589 0.7 c0.666 0.9 1 1.3 1.7 2.196c-0.782 0.016-1.173 0.02-1.957 0.018c-0.561-0.743-0.841-1.119-1.404-1.885 c-0.261-0.009-0.391-0.014-0.653-0.025c0.081 0.8 0.1 1.1 0.2 1.883C22.377 63.8 22 63.8 21.3 63.775z M22.713 60.487c0.441 0 0.7 0 1.1 0.051c0.107 0 0.201-0.05 0.281-0.16c0.08-0.111 0.109-0.269 0.087-0.475 c-0.023-0.21-0.094-0.374-0.213-0.489c-0.119-0.116-0.233-0.176-0.34-0.181c-0.422-0.02-0.634-0.032-1.057-0.06 C22.628 59.7 22.7 60 22.7 60.487z"/>
			<path fill="#231F20" d="M31.995 62.185c0.06 0.6 0.1 0.8 0.2 1.405c-1.491 0.113-2.985 0.194-4.48 0.2 c-0.213-1.988-0.427-3.975-0.64-5.963c1.47-0.007 2.941-0.065 4.407-0.168c0.061 0.6 0.1 0.9 0.2 1.4 c-1.068 0.075-1.602 0.105-2.674 0.142c0.036 0.3 0.1 0.5 0.1 0.836c0.915-0.034 1.372-0.058 2.284-0.119 c0.056 0.5 0.1 0.8 0.1 1.313c-0.912 0.062-1.369 0.087-2.284 0.124c0.04 0.4 0.1 0.6 0.1 0.9 C30.346 62.3 30.9 62.3 32 62.185z"/>
			<path fill="#231F20" d="M36.479 59.16c-0.187-0.079-0.379-0.146-0.574-0.202c-0.165-0.048-0.35-0.091-0.552-0.127 c-0.203-0.036-0.398-0.044-0.586-0.024c-0.153 0.016-0.272 0.051-0.358 0.105c-0.086 0.054-0.124 0.134-0.112 0.2 c0.008 0.1 0 0.1 0.1 0.184c0.058 0 0.1 0.1 0.2 0.114c0.104 0 0.2 0.1 0.4 0.1 c0.148 0 0.3 0.1 0.5 0.088c0.294 0.1 0.6 0.1 0.8 0.185c0.242 0.1 0.5 0.2 0.6 0.3 c0.178 0.1 0.3 0.3 0.4 0.45c0.109 0.2 0.2 0.4 0.2 0.693c0.038 0.4 0 0.662-0.111 0.9 c-0.112 0.257-0.273 0.471-0.483 0.64c-0.21 0.169-0.454 0.302-0.732 0.396c-0.278 0.094-0.561 0.156-0.848 0.2 c-0.229 0.024-0.466 0.031-0.71 0.021c-0.244-0.01-0.489-0.034-0.733-0.072c-0.245-0.039-0.482-0.09-0.711-0.154 c-0.229-0.064-0.444-0.14-0.643-0.23c0.236-0.588 0.354-0.883 0.589-1.476c0.219 0.1 0.4 0.2 0.7 0.3 c0.196 0.1 0.4 0.1 0.7 0.162c0.245 0 0.5 0.1 0.7 0.026c0.188-0.02 0.316-0.058 0.384-0.112 c0.068-0.055 0.098-0.121 0.09-0.198c-0.009-0.083-0.053-0.15-0.133-0.2c-0.079-0.05-0.187-0.09-0.32-0.121 c-0.134-0.031-0.287-0.059-0.459-0.086c-0.172-0.027-0.356-0.062-0.55-0.105c-0.285-0.062-0.534-0.135-0.745-0.219 c-0.211-0.084-0.388-0.186-0.531-0.305c-0.143-0.119-0.255-0.259-0.335-0.42c-0.08-0.161-0.131-0.35-0.154-0.567 c-0.035-0.327-0.003-0.621 0.097-0.882c0.1-0.261 0.249-0.484 0.449-0.671c0.199-0.187 0.435-0.337 0.704-0.452 c0.269-0.114 0.56-0.189 0.871-0.224c0.229-0.025 0.454-0.03 0.675-0.014c0.221 0 0.4 0 0.6 0.1 c0.209 0 0.4 0.1 0.6 0.138c0.184 0.1 0.3 0.1 0.5 0.153C36.835 58.3 36.7 58.6 36.5 59.16z"/>
			<path fill="#231F20" d="M43.115 57.527c-0.71 0.154-1.065 0.229-1.776 0.376c0.163 1.5 0.3 3 0.5 4.6 c-0.681 0.13-1.023 0.172-1.708 0.264c-0.162-1.514-0.325-3.027-0.487-4.541c-0.719 0.109-1.078 0.161-1.798 0.3 c-0.061-0.573-0.092-0.86-0.154-1.436c1.774-0.253 3.527-0.559 5.276-0.954C43.021 56.7 43.1 56.9 43.1 57.527z"/>
			<path fill="#231F20" d="M43.304 62.185c0.561-2.188 1.112-4.378 1.654-6.571c0.549-0.127 0.824-0.191 1.372-0.32 c0.988 1.9 2 3.8 3 5.653c-0.717 0.153-1.076 0.229-1.794 0.38c-0.201-0.448-0.302-0.672-0.503-1.119 c-0.658 0.142-0.987 0.213-1.645 0.352c-0.095 0.507-0.143 0.759-0.238 1.263C44.386 62 44 62 43.3 62.185z M45.833 57.213c-0.141 0.875-0.212 1.31-0.354 2.178c0.449-0.098 0.673-0.147 1.122-0.246 C46.294 58.4 46.1 58 45.8 57.213z"/>
			<path fill="#231F20" d="M52.263 58.799c0.197-0.044 0.361-0.125 0.49-0.245c0.13-0.12 0.23-0.262 0.301-0.426 c0.071-0.164 0.117-0.346 0.137-0.545c0.02-0.199 0.019-0.402-0.003-0.61c-0.139-1.299-0.209-1.947-0.348-3.242 c0.677-0.162 1.016-0.243 1.693-0.403c0.14 1.3 0.2 2 0.3 3.262c0.047 0.4 0 0.868-0.032 1.3 c-0.069 0.41-0.204 0.78-0.406 1.111c-0.202 0.331-0.47 0.614-0.804 0.849s-0.739 0.403-1.215 0.5 c-0.493 0.105-0.925 0.111-1.293 0.019c-0.369-0.092-0.682-0.253-0.938-0.485c-0.256-0.231-0.456-0.52-0.6-0.866 c-0.144-0.347-0.238-0.727-0.283-1.141c-0.137-1.277-0.206-1.916-0.343-3.195c0.677-0.163 1.015-0.245 1.692-0.409 c0.138 1.3 0.2 1.9 0.3 3.215c0.022 0.2 0.1 0.4 0.1 0.581c0.061 0.2 0.1 0.3 0.2 0.5 c0.103 0.1 0.2 0.2 0.4 0.27C51.894 58.8 52.1 58.8 52.3 58.799z"/>
			<path fill="#231F20" d="M56.401 59.44c-0.229-2.13-0.457-4.26-0.686-6.389c1.133-0.262 1.7-0.391 2.834-0.638 c0.301-0.066 0.587-0.061 0.9 0.015c0.269 0.1 0.5 0.2 0.7 0.368c0.205 0.2 0.4 0.4 0.5 0.6 c0.134 0.3 0.2 0.5 0.2 0.789c0.04 0.377-0.001 0.741-0.123 1.09c-0.123 0.35-0.312 0.665-0.568 0.9 c0.66 0.8 1 1.3 1.7 2.171c-0.772 0.105-1.156 0.177-1.924 0.326c-0.557-0.71-0.835-1.062-1.391-1.758 c-0.254 0.053-0.381 0.079-0.636 0.133c0.085 0.8 0.1 1.2 0.2 1.984C57.42 59.2 57.1 59.3 56.4 59.44z M57.722 55.568c0.428-0.092 0.642-0.138 1.071-0.228c0.104-0.022 0.195-0.103 0.272-0.243c0.077-0.14 0.104-0.319 0.08-0.537 c-0.024-0.223-0.095-0.383-0.212-0.479c-0.117-0.095-0.228-0.132-0.332-0.109c-0.411 0.088-0.616 0.133-1.027 0.2 C57.633 54.7 57.7 55 57.7 55.568z"/>
			<path fill="#231F20" d="M62.004 58.386c0.537-2.286 1.079-4.572 1.624-6.856c0.554-0.077 0.832-0.114 1.387-0.183 c1.021 2.1 2 4.2 3 6.341c-0.726 0.068-1.089 0.105-1.815 0.183c-0.207-0.504-0.311-0.755-0.518-1.256 c-0.665 0.075-0.997 0.114-1.662 0.197c-0.092 0.535-0.138 0.802-0.23 1.339C63.095 58.2 62.7 58.3 62 58.386z M64.522 53.302c-0.138 0.907-0.207 1.361-0.344 2.272c0.453-0.057 0.68-0.085 1.134-0.138 C64.995 54.6 64.8 54.2 64.5 53.302z"/>
			<path fill="#231F20" d="M70.106 54.232c0.139 1.3 0.2 1.9 0.3 3.254c-0.689 0.05-1.033 0.078-1.721 0.1 c-0.236-2.201-0.472-4.402-0.709-6.603c0.536-0.048 0.804-0.07 1.342-0.109c0.967 1.1 1.9 2.1 2.9 3.2 c-0.144-1.338-0.215-2.006-0.358-3.338c0.692-0.025 1.038-0.033 1.732-0.04c0.234 2.2 0.5 4.4 0.7 6.5 c-0.55 0.018-0.825 0.03-1.374 0.056C72.006 56.3 71.1 55.3 70.1 54.232z"/>
			<path fill="#231F20" d="M80.047 52.521c-0.734-0.066-1.1-0.092-1.831-0.134c0.174 1.6 0.3 3.2 0.5 4.9 c-0.696-0.014-1.044-0.016-1.738-0.015c-0.176-1.639-0.352-3.278-0.528-4.917c-0.732-0.02-1.098-0.025-1.828-0.024 c-0.067-0.624-0.1-0.935-0.167-1.558c1.806 0 3.6 0.1 5.4 0.284C79.95 51.6 80 51.9 80 52.521z"/>
		</g>
	</g>
</g>
</svg>
